<svg xmlns="http://www.w3.org/2000/svg" xmlns:xlink="http://www.w3.org/1999/xlink" viewBox="0 0 194.12 194.52"><defs><linearGradient id="未命名的渐变_474" x1="98.63" y1="4.69" x2="100.89" y2="198.8" gradientUnits="userSpaceOnUse"><stop offset="0" stop-color="#3fa9f5" stop-opacity="0.8"/><stop offset="0.02" stop-color="#37a2ee" stop-opacity="0.81"/><stop offset="0.07" stop-color="#1e8ed9" stop-opacity="0.85"/><stop offset="0.14" stop-color="#0d80c9" stop-opacity="0.88"/><stop offset="0.23" stop-color="#0377c1" stop-opacity="0.9"/><stop offset="0.38" stop-color="#0075be" stop-opacity="0.9"/><stop offset="0.38" stop-color="#0273bd" stop-opacity="0.9"/><stop offset="0.53" stop-color="#1757ad" stop-opacity="0.9"/><stop offset="0.67" stop-color="#2743a2" stop-opacity="0.9"/><stop offset="0.83" stop-color="#30379b" stop-opacity="0.9"/><stop offset="1" stop-color="#339" stop-opacity="0.9"/></linearGradient><linearGradient id="linear-gradient" x1="97.8" y1="166.31" x2="97.8" y2="164.65" gradientUnits="userSpaceOnUse"><stop offset="0" stop-color="#3f4a52"/><stop offset="0.52" stop-color="#747d85"/><stop offset="1" stop-color="#b5bdc8"/></linearGradient><linearGradient id="linear-gradient-2" x1="97.8" y1="166" x2="97.8" y2="142.97" gradientUnits="userSpaceOnUse"><stop offset="0.01" stop-color="#8898a3"/><stop offset="0.03" stop-color="#364b56"/><stop offset="0.15" stop-color="#6d7e89"/><stop offset="0.19" stop-color="#50636e"/><stop offset="0.23" stop-color="#8898a3"/><stop offset="0.27" stop-color="#d8ebf2"/><stop offset="0.41" stop-color="#a5b6c0"/><stop offset="0.65" stop-color="#8898a3"/><stop offset="1" stop-color="#364b56"/></linearGradient><linearGradient id="linear-gradient-3" x1="4782.45" y1="164.84" x2="4785.94" y2="163.52" gradientTransform="matrix(-1, 0, 0, 1, 4896.98, 0)" gradientUnits="userSpaceOnUse"><stop offset="0" stop-color="#b5bdc8"/><stop offset="1"/></linearGradient><linearGradient id="linear-gradient-4" x1="81.07" y1="164.84" x2="84.56" y2="163.52" gradientTransform="matrix(1, 0, 0, 1, 0, 0)" xlink:href="#linear-gradient-3"/><linearGradient id="linear-gradient-5" x1="78.26" y1="162.67" x2="111.85" y2="162.67" gradientUnits="userSpaceOnUse"><stop offset="0"/><stop offset="0.5" stop-color="#b5bdc8"/><stop offset="1"/></linearGradient><linearGradient id="linear-gradient-6" x1="37.39" y1="70.48" x2="159.21" y2="140.81" gradientUnits="userSpaceOnUse"><stop offset="0" stop-color="#364b56"/><stop offset="0.13" stop-color="#8898a3"/><stop offset="0.3" stop-color="#d8ebf2"/><stop offset="0.68" stop-color="#8898a3"/><stop offset="1" stop-color="#364b56"/></linearGradient><linearGradient id="linear-gradient-7" x1="99.3" y1="143.48" x2="96.95" y2="139.97" gradientUnits="userSpaceOnUse"><stop offset="0" stop-color="#009ac2"/><stop offset="0.26" stop-color="#00abd4"/><stop offset="0.84" stop-color="#00e3ff"/><stop offset="0.87" stop-color="#00defb"/><stop offset="0.9" stop-color="#00d0ee"/><stop offset="0.93" stop-color="#00b9d9"/><stop offset="0.97" stop-color="#0099bc"/><stop offset="1" stop-color="#00789e"/></linearGradient></defs><g style="isolation:isolate"><g id="图层_1" data-name="图层 1"><path d="M196.86,109.55a9.66,9.66,0,1,0-19.31,0l0,.2a79.17,79.17,0,1,1-58.87-86l1.85.5,1,.1c8.33,0,17.44-4.39,21.53-11a15.51,15.51,0,0,0,2.57-10.13H99.22a97.26,97.26,0,1,0,97.6,106.58Z" transform="translate(-2.74 -3.18)" style="fill:url(#未命名的渐变_474)"/><polyline points="127.71 158.1 159.6 127.5 159.61 120.64 117.21 123.54" style="fill:#fff;stroke:#999"/><polyline points="96.4 91.25 58.15 116.88 128.68 150.3 159.59 120.92" style="fill:#f30;stroke:#999"/><polyline points="58.16 116.82 58.13 123.76 127.98 158.18 128.68 150.3" style="fill:#c30;stroke:#999"/><path d="M130.56,160.87s1.31-.5,5.28-4.68l-5.12,5.18" transform="translate(-2.74 -3.18)" style="fill:#c30;stroke:#999"/><path d="M131.28,154.87l-.12-1.34,5.06-4.67S132.18,152.48,131.28,154.87Z" transform="translate(-2.74 -3.18)" style="fill:#c30;stroke:#999"/><path d="M132,153.23l30.31-28.64,0-.52S132.55,151.58,132,153.23Z" transform="translate(-2.74 -3.18)" style="fill:#c30;stroke:#999"/><polyline points="58.24 123.66 127.59 157.85 127.74 157.24 58.24 122.9" style="fill:#f63;stroke:#999;opacity:0.62"/><polyline points="138.3 137.72 146.34 134.17 157.9 56.04 112.77 27.25 105.05 30.11" style="fill:#fff;stroke:#999"/><polyline points="99.65 103.96 138.14 137.74 148.71 59.45 104.08 29.93" style="fill:#336;stroke:#999"/><polygon points="149.48 59.34 138.71 137.54 137.99 137.84 148.71 59.45 149.48 59.34" style="fill:#003;stroke:#999"/><polygon points="158.22 56.06 146.97 134.19 146.24 134.48 157.45 56.17 158.22 56.06" style="fill:#003;stroke:#999"/><polygon points="149.17 59.78 149.57 59.2 104.76 29.62 103.98 30.05 149.17 59.78" style="fill:#336;stroke:#999;opacity:0.58"/><polygon points="157.11 56.25 158.26 55.97 112.81 27.21 111.66 27.5 157.11 56.25" style="fill:#336;stroke:#999;opacity:0.53"/><polyline points="138.71 137.54 145.69 134.71 156.83 56.36 151.47 58.42 148.19 67.68" style="fill:#afafaf;stroke:#999;opacity:0.6900000000000001"/><polygon points="157.52 56.2 146.27 134.32 145.81 134.5 157.03 56.19 157.52 56.2" style="fill:#274066;stroke:#999"/><path d="M107.47,33.65l8.45-3.33s-4.16-.61-9.17,2.84" transform="translate(-2.74 -3.18)" style="fill:#336;stroke:#999"/><path d="M108.47,33.37s2-2.4,6.32-2.46" transform="translate(-2.74 -3.18)" style="fill:#fff;stroke:#999"/><path d="M115.92,30.32s-3.32-1.84-8.66,2.56l1.2-.12s3.92-3.08,6.61-2.09" transform="translate(-2.74 -3.18)" style="fill:#336;stroke:#999"/><path d="M114.56,164.65a3.75,3.75,0,0,1,.36.24c.3.2.43.37.41.44s-.08.23-.46.42a22.25,22.25,0,0,1-3.7.25H84.44a22.18,22.18,0,0,1-3.71-.25c-.38-.2-.48-.36-.47-.42s.12-.24.42-.44l.31-.22c-.08,0-1,.36-1,.66s.24.49.65.71h.05a21.77,21.77,0,0,0,3.79.26h26.73a22.06,22.06,0,0,0,3.79-.26h0c.41-.22.64-.42.65-.71a.61.61,0,0,0-.22-.44A3.7,3.7,0,0,0,114.56,164.65Z" transform="translate(-2.74 -3.18)" style="fill:url(#linear-gradient)"/><path d="M111.69,161c-1.24-4.29-1.8-17.09-1.8-17.09,0-1.22-1-.94-2.2-.94H87.92c-1.23,0-2.21-.28-2.21.94,0,0-.56,12.8-1.8,17.09-1,3.4-5.34,3.59-3.23,4.71a21.16,21.16,0,0,0,3.76.26h26.73a21.1,21.1,0,0,0,3.75-.26C117,164.62,112.67,164.43,111.69,161Z" transform="translate(-2.74 -3.18)" style="fill:url(#linear-gradient-2)"/><path d="M111.7,161c1,3.39,5.34,3.59,3.22,4.7a21.1,21.1,0,0,1-3.75.26h-.76Z" transform="translate(-2.74 -3.18)" style="mix-blend-mode:screen;fill:url(#linear-gradient-3)"/><path d="M83.91,161c-1,3.39-5.34,3.59-3.23,4.7a21.16,21.16,0,0,0,3.76.26h.75Z" transform="translate(-2.74 -3.18)" style="mix-blend-mode:screen;fill:url(#linear-gradient-4)"/><polygon points="78.26 162.81 78.26 162.53 111.85 162.53 111.85 162.81 78.26 162.81 78.26 162.81" style="mix-blend-mode:screen;fill:url(#linear-gradient-5)"/><path d="M155.39,65.94H41.2a2.35,2.35,0,0,0-2.35,2.34V143a2.35,2.35,0,0,0,2.35,2.35H155.39a2.35,2.35,0,0,0,2.35-2.35V68.28A2.35,2.35,0,0,0,155.39,65.94ZM157.45,143a2.05,2.05,0,0,1-2.06,2.05H41.2A2.05,2.05,0,0,1,39.15,143V68.28a2.05,2.05,0,0,1,2.05-2H155.39a2.05,2.05,0,0,1,2.06,2Z" transform="translate(-2.74 -3.18)" style="fill:#fff"/><path d="M155.39,66.08H41.2a2.2,2.2,0,0,0-2.2,2.2V143a2.2,2.2,0,0,0,2.2,2.2H155.39a2.21,2.21,0,0,0,2.21-2.2V68.28A2.21,2.21,0,0,0,155.39,66.08Zm-2.67,71.25H43.87V71.43H152.72Z" transform="translate(-2.74 -3.18)" style="fill:url(#linear-gradient-6)"/><path d="M98.3,144a2,2,0,1,1,2-2,2,2,0,0,1-2,2Zm0-3.12a1.11,1.11,0,1,0,1.1,1.1,1.11,1.11,0,0,0-1.1-1.1Z" transform="translate(-2.74 -3.18)" style="fill:url(#linear-gradient-7)"/><rect id="LAPTOP" x="41.13" y="68.26" width="108.78" height="65.89" style="fill:none;stroke:#364b56;stroke-width:0.10607000000000001px"/></g></g></svg>