<?xml version="1.0" standalone="no"?><!DOCTYPE svg PUBLIC "-//W3C//DTD SVG 1.1//EN" "http://www.w3.org/Graphics/SVG/1.1/DTD/svg11.dtd"><svg t="1605777147826" class="icon" viewBox="0 0 1247 1024" version="1.1" xmlns="http://www.w3.org/2000/svg" p-id="2852" xmlns:xlink="http://www.w3.org/1999/xlink" width="243.5546875" height="200"><defs><style type="text/css"></style></defs><path d="M90.119928 696.405262c0 147.414882 188.355849 262.12379 425.889659 262.12379s425.890659-114.649908 425.890659-262.12379-188.355849-262.12279-425.889659-262.12279S90.119928 548.93238 90.119928 696.405262" fill="#FFFFFF" p-id="2853"></path><path d="M933.724252 491.636426c-16.352987-8.175993-32.764974-8.175993-24.58898-32.764973 16.352987-49.117961 24.58898-90.119928 0-122.884902-40.941967-57.354954-155.590875-57.354954-278.475777 0 0 0-40.941967 16.352987-32.765974-16.352987a132.553894 132.553894 0 0 0 0-147.414882c-65.649947-65.649947-253.886797 0-409.537672 163.827869C73.706941 450.695459 0 581.756354 0 688.169269 0 892.940105 262.12279 1024 524.18658 1024c344.006725 0 565.128547-196.592843 565.128548-352.123718a185.789851 185.789851 0 0 0-155.590876-180.239856z m-409.537672 450.41964c-204.768836 24.58998-384.948692-73.706941-401.360678-212.94483-16.352987-131.299895 139.237889-262.12279 352.122718-278.475777 204.769836-24.58898 384.949692 73.706941 401.361678 212.94483 8.295993 131.121895-147.354882 253.946797-352.123718 278.476777z" fill="#D52B2A" p-id="2854"></path><path d="M1163.082069 106.688735A334.636732 334.636732 0 0 0 843.664324 8.390813a61.591951 61.591951 0 0 0-40.941967 57.354954 60.219952 60.219952 0 0 0 65.649948 32.764974 227.925817 227.925817 0 0 1 221.121823 73.706941 239.324808 239.324808 0 0 1 49.11796 229.357816 46.730963 46.730963 0 0 0 90.119928 24.589981 316.314747 316.314747 0 0 0-65.649947-319.418744" fill="#E89214" p-id="2855"></path><path d="M1040.256167 221.337643a181.074855 181.074855 0 0 0-155.589875-49.118961 41.776967 41.776967 0 1 0 16.351986 81.883935 66.067947 66.067947 0 0 1 73.707941 24.58998 83.554933 83.554933 0 0 1 16.411987 73.705941 38.852969 38.852969 0 0 0 73.706941 24.58998 139.715888 139.715888 0 0 0-24.58898-155.650875" fill="#E89214" p-id="2856"></path><path d="M540.539567 548.93138a230.789815 230.789815 0 0 0-253.886797 114.649909 157.918874 157.918874 0 0 0 98.295922 221.120823 223.866821 223.866821 0 0 0 270.299783-114.648909 158.574873 158.574873 0 0 0-114.709908-221.121823zM466.832626 778.290197a78.779937 78.779937 0 0 1-98.296921 32.765974 56.757955 56.757955 0 0 1-24.58898-81.883935 77.586938 77.586938 0 0 1 90.119927-32.765974 54.787956 54.787956 0 0 1 32.765974 81.883935z m65.649948-81.883935a32.705974 32.705974 0 0 1-32.765974 16.352987c-16.351987-8.175993-16.351987-16.352987-8.175994-32.764974a62.06995 62.06995 0 0 1 32.764974-16.352986c8.057994 8.175993 16.233987 16.352987 8.057994 32.705973z" fill="#040000" p-id="2857"></path></svg>